<svg width="17" height="19" viewBox="0 0 17 19" fill="none" xmlns="http://www.w3.org/2000/svg">
<path d="M16.6359 17.2555L10.7672 8.0324L16.5581 1.66209C16.6891 1.51446 16.7566 1.32115 16.746 1.12408C16.7354 0.927009 16.6475 0.74206 16.5015 0.60933C16.3554 0.476599 16.1629 0.406785 15.9658 0.415023C15.7686 0.423262 15.5826 0.508889 15.4481 0.65334L9.93187 6.72084L6.13593 0.755527C6.06824 0.648985 5.97476 0.56125 5.86414 0.50045C5.75352 0.439651 5.62934 0.407754 5.50312 0.407715H1.00312C0.868644 0.40765 0.736626 0.44374 0.620888 0.512208C0.505149 0.580676 0.409948 0.679003 0.345253 0.796892C0.280558 0.91478 0.248749 1.0479 0.253156 1.1823C0.257564 1.3167 0.298026 1.44744 0.370306 1.56084L6.23906 10.783L0.448118 17.158C0.380493 17.2307 0.327959 17.316 0.29356 17.4091C0.259161 17.5022 0.243581 17.6012 0.247724 17.7004C0.251867 17.7995 0.275651 17.8969 0.317695 17.9868C0.35974 18.0767 0.41921 18.1573 0.492659 18.2241C0.566108 18.2908 0.652075 18.3424 0.745577 18.3756C0.839079 18.4089 0.938256 18.4233 1.03736 18.418C1.13647 18.4126 1.23353 18.3877 1.32292 18.3446C1.41231 18.3015 1.49225 18.241 1.55812 18.1668L7.07437 12.0993L10.8703 18.0646C10.9385 18.1703 11.0323 18.2571 11.1429 18.317C11.2534 18.377 11.3773 18.4082 11.5031 18.4077H16.0031C16.1374 18.4077 16.2693 18.3716 16.3849 18.3031C16.5005 18.2347 16.5956 18.1365 16.6603 18.0188C16.7249 17.901 16.7568 17.7681 16.7525 17.6338C16.7482 17.4996 16.708 17.3689 16.6359 17.2555ZM11.9147 16.9077L2.36906 1.90771H5.08781L14.6372 16.9077H11.9147Z" fill="white" fill-opacity="0.8"/>
</svg>
