<svg width="21" height="21" viewBox="0 0 21 21" fill="none" xmlns="http://www.w3.org/2000/svg">
<path d="M20.25 10.4457C20.2469 12.8286 19.3726 15.1282 17.7917 16.9113C16.2109 18.6943 14.0326 19.8378 11.6671 20.1263C11.6145 20.1322 11.5611 20.127 11.5107 20.1108C11.4602 20.0947 11.4137 20.068 11.3743 20.0326C11.3348 19.9971 11.3034 19.9537 11.282 19.9052C11.2605 19.8568 11.2496 19.8043 11.25 19.7513V12.6957H13.5C13.6028 12.6959 13.7045 12.675 13.7989 12.6342C13.8933 12.5934 13.9783 12.5337 14.0487 12.4587C14.119 12.3837 14.1732 12.2951 14.2078 12.1983C14.2424 12.1015 14.2568 11.9986 14.25 11.896C14.2334 11.7031 14.1444 11.5237 14.0009 11.3937C13.8574 11.2638 13.6701 11.193 13.4765 11.1957H11.25V8.94565C11.25 8.54783 11.408 8.1663 11.6893 7.885C11.9706 7.60369 12.3521 7.44565 12.75 7.44565H14.25C14.3528 7.44588 14.4545 7.42496 14.5489 7.38421C14.6433 7.34345 14.7283 7.28371 14.7987 7.20872C14.869 7.13373 14.9232 7.04507 14.9578 6.94826C14.9924 6.85145 15.0068 6.74856 15 6.64597C14.9834 6.45278 14.8941 6.27307 14.7502 6.1431C14.6063 6.01313 14.4185 5.94257 14.2246 5.94565H12.75C11.9543 5.94566 11.1912 6.26173 10.6286 6.82433C10.066 7.38694 9.74996 8.15001 9.74996 8.94565V11.1957H7.49996C7.39714 11.1954 7.29538 11.2163 7.20099 11.2571C7.10659 11.2979 7.02159 11.3576 6.95126 11.4326C6.88092 11.5076 6.82676 11.5962 6.79213 11.693C6.7575 11.7899 6.74315 11.8928 6.74996 11.9953C6.76655 12.1885 6.85579 12.3682 6.99968 12.4982C7.14357 12.6282 7.3314 12.6987 7.52527 12.6957H9.74996V19.7532C9.75028 19.8061 9.7394 19.8585 9.71803 19.9069C9.69666 19.9553 9.66528 19.9986 9.62597 20.034C9.58665 20.0695 9.54028 20.0962 9.48991 20.1124C9.43954 20.1286 9.3863 20.134 9.33371 20.1282C6.90498 19.8324 4.6758 18.6356 3.0874 16.7746C1.49901 14.9136 0.667161 12.5241 0.75652 10.0791C0.94402 5.01659 5.04464 0.900967 10.1109 0.704092C11.4225 0.653286 12.731 0.867546 13.9579 1.33406C15.1848 1.80057 16.3051 2.50975 17.2516 3.41918C18.1981 4.32861 18.9515 5.41961 19.4667 6.62691C19.9819 7.83422 20.2483 9.13303 20.25 10.4457Z" fill="white" fill-opacity="0.8"/>
</svg>
