<svg width="21" height="21" viewBox="0 0 21 21" fill="none" xmlns="http://www.w3.org/2000/svg">
<path d="M10.5 5.91357C9.60998 5.91357 8.73995 6.1775 7.99993 6.67196C7.25991 7.16643 6.68314 7.86923 6.34254 8.6915C6.00195 9.51377 5.91283 10.4186 6.08647 11.2915C6.2601 12.1644 6.68868 12.9662 7.31802 13.5956C7.94736 14.2249 8.74918 14.6535 9.62209 14.8271C10.495 15.0007 11.3998 14.9116 12.2221 14.571C13.0443 14.2304 13.7471 13.6537 14.2416 12.9136C14.7361 12.1736 15 11.3036 15 10.4136C14.9988 9.22048 14.5243 8.07661 13.6806 7.23296C12.837 6.38932 11.6931 5.91481 10.5 5.91357ZM10.5 13.4136C9.90666 13.4136 9.32664 13.2376 8.83329 12.908C8.33994 12.5783 7.95542 12.1098 7.72836 11.5616C7.5013 11.0134 7.44189 10.4102 7.55764 9.8283C7.6734 9.24636 7.95912 8.71181 8.37868 8.29225C8.79824 7.8727 9.33279 7.58697 9.91473 7.47122C10.4967 7.35546 11.0999 7.41487 11.6481 7.64194C12.1962 7.869 12.6648 8.25352 12.9944 8.74686C13.3241 9.24021 13.5 9.82023 13.5 10.4136C13.5 11.2092 13.1839 11.9723 12.6213 12.5349C12.0587 13.0975 11.2956 13.4136 10.5 13.4136ZM15 0.663574H6C4.60807 0.665063 3.27358 1.21866 2.28933 2.20291C1.30509 3.18715 0.751489 4.52164 0.75 5.91357V14.9136C0.751489 16.3055 1.30509 17.64 2.28933 18.6242C3.27358 19.6085 4.60807 20.1621 6 20.1636H15C16.3919 20.1621 17.7264 19.6085 18.7107 18.6242C19.6949 17.64 20.2485 16.3055 20.25 14.9136V5.91357C20.2485 4.52164 19.6949 3.18715 18.7107 2.20291C17.7264 1.21866 16.3919 0.665063 15 0.663574ZM18.75 14.9136C18.75 15.9081 18.3549 16.862 17.6516 17.5652C16.9484 18.2685 15.9946 18.6636 15 18.6636H6C5.00544 18.6636 4.05161 18.2685 3.34835 17.5652C2.64509 16.862 2.25 15.9081 2.25 14.9136V5.91357C2.25 4.91901 2.64509 3.96519 3.34835 3.26192C4.05161 2.55866 5.00544 2.16357 6 2.16357H15C15.9946 2.16357 16.9484 2.55866 17.6516 3.26192C18.3549 3.96519 18.75 4.91901 18.75 5.91357V14.9136ZM16.5 5.53857C16.5 5.76108 16.434 5.97859 16.3104 6.16359C16.1868 6.3486 16.0111 6.49279 15.8055 6.57794C15.6 6.66309 15.3738 6.68537 15.1555 6.64196C14.9373 6.59855 14.7368 6.4914 14.5795 6.33407C14.4222 6.17674 14.315 5.97628 14.2716 5.75805C14.2282 5.53982 14.2505 5.31362 14.3356 5.10806C14.4208 4.90249 14.565 4.72679 14.75 4.60317C14.935 4.47955 15.1525 4.41357 15.375 4.41357C15.6734 4.41357 15.9595 4.5321 16.1705 4.74308C16.3815 4.95406 16.5 5.24021 16.5 5.53857Z" fill="white" fill-opacity="0.8"/>
</svg>
